<svg xmlns="http://www.w3.org/2000/svg" height="20" viewBox="0 -960 960 960" width="20"><path d="M434.5-286.5 667-519l-68.5-68.5L435-424l-82-82-67 68 148.5 151.5Zm45.5 215q-74 0-139.883-28.35-65.884-28.35-115.15-77.617-49.267-49.266-77.617-115.15Q119-358.5 119-432.5q0-74 28.35-139.883 28.35-65.884 77.617-115.15 49.266-49.267 115.15-77.617Q406-793.5 480-793.5q74 0 139.883 28.35 65.884 28.35 115.15 77.617 49.267 49.266 77.617 115.15Q841-506.5 841-432.5q0 74-28.35 139.883-28.35 65.884-77.617 115.15-49.266 49.267-115.15 77.617Q554-71.5 480-71.5ZM227-877l60 58L93-626l-58-60 192-191Zm506 0 192 191-58 60-194-193 60-58Z"/></svg>