<svg xmlns="http://www.w3.org/2000/svg" height="20" viewBox="0 -960 960 960" width="20"><path d="M479.456-259Q506-259 524.5-276.956q18.5-17.956 18.5-44.5T525.044-367q-17.956-19-44.5-19T435.5-367.316Q417-348.632 417-322.088t17.956 44.816Q452.912-259 479.456-259ZM424-430h113v-259H424v259Zm56.276 358q-85.183 0-159.329-31.847t-129.713-87.512q-55.567-55.666-87.4-129.699Q72-395.091 72-480.458q0-85.449 31.847-159.095t87.512-129.213q55.666-55.567 129.699-87.4Q395.091-888 480.458-888q85.449 0 159.095 31.847 73.646 31.846 129.213 87.512 55.567 55.666 87.4 129.465Q888-565.377 888-480.276q0 85.183-31.847 159.329-31.846 74.146-87.512 129.713-55.666 55.567-129.465 87.4Q565.377-72 480.276-72Z"/></svg>